<?xml version="1.0" encoding="UTF-8" standalone="no"?>
<!DOCTYPE svg PUBLIC "-//W3C//DTD SVG 1.1//EN" "http://www.w3.org/Graphics/SVG/1.1/DTD/svg11.dtd">
<svg version="1.1" xmlns="http://www.w3.org/2000/svg" xmlns:xlink="http://www.w3.org/1999/xlink" preserveAspectRatio="xMidYMid meet" viewBox="176.21596666666665 172.4233740740741 135.93276327817182 135.93276327817182" width="50" height="50"><defs><path d="M249.13 228.04C249.13 228.04 249.13 228.04 249.13 228.04C252.55 238.24 254.45 243.91 254.83 245.04C254.83 245.04 254.83 245.04 254.83 245.04C244.27 248.58 238.4 250.55 237.23 250.94C237.23 250.94 237.23 250.94 237.23 250.94C233.81 240.74 231.91 235.07 231.53 233.94C231.53 233.94 231.53 233.94 231.53 233.94C242.09 230.4 247.96 228.43 249.13 228.04Z" id="e1npvElgMo"></path><path d="M249.13 228.04C249.13 228.04 249.13 228.04 249.13 228.04C252.55 238.24 254.45 243.91 254.83 245.04C254.83 245.04 254.83 245.04 254.83 245.04C244.27 248.58 238.4 250.55 237.23 250.94C237.23 250.94 237.23 250.94 237.23 250.94C233.81 240.74 231.91 235.07 231.53 233.94C231.53 233.94 231.53 233.94 231.53 233.94C242.09 230.4 247.96 228.43 249.13 228.04Z" id="g122r0CAco"></path><path d="M261.78 173.7L264.05 173.99L266.25 174.39L268.38 174.9L270.44 175.51L272.43 176.22L274.37 177.05L276.24 177.99L278.05 179.03L279.8 180.19L281.5 181.46L283.15 182.84L284.74 184.34L286.28 185.96L287.77 187.69L289.22 189.54L290.62 191.5L291.98 193.59L293.3 195.8L294.58 198.12L295.82 200.57L297.03 203.15L298.2 205.85L299.34 208.67L300.45 211.62L301.54 214.7L302.59 217.91L303.62 221.25L304.6 224.6L305.48 227.86L306.27 231.03L306.97 234.1L307.57 237.09L308.08 239.99L308.49 242.8L308.81 245.53L309.02 248.18L309.13 250.75L309.15 253.24L309.06 255.65L308.87 257.99L308.58 260.26L308.18 262.46L307.68 264.58L307.07 266.65L306.35 268.64L305.52 270.57L304.59 272.45L303.54 274.26L302.38 276.01L301.11 277.71L299.73 279.35L298.23 280.95L296.62 282.49L294.89 283.98L293.04 285.43L291.07 286.83L288.98 288.19L286.78 289.51L284.45 290.79L282 292.03L279.42 293.24L276.72 294.41L273.9 295.55L270.95 296.66L267.87 297.74L264.66 298.8L261.33 299.83L257.97 300.81L254.71 301.69L251.55 302.48L248.47 303.18L245.48 303.78L242.59 304.29L239.77 304.7L237.04 305.01L234.39 305.23L231.82 305.34L229.33 305.36L226.92 305.27L224.58 305.08L222.31 304.79L220.12 304.39L217.99 303.88L215.93 303.27L213.93 302.56L212 301.73L210.13 300.79L208.31 299.75L206.56 298.59L204.86 297.32L203.22 295.94L201.63 294.44L200.08 292.82L198.59 291.09L197.14 289.24L195.74 287.28L194.38 285.19L193.06 282.98L191.78 280.66L190.54 278.2L189.34 275.63L188.16 272.93L187.02 270.11L185.91 267.16L184.83 264.08L183.77 260.87L182.74 257.53L181.77 254.18L180.88 250.92L180.09 247.75L179.39 244.68L178.79 241.69L178.28 238.79L177.87 235.98L177.56 233.25L177.35 230.6L177.23 228.03L177.22 225.54L177.3 223.13L177.49 220.79L177.79 218.52L178.18 216.32L178.69 214.2L179.3 212.13L180.02 210.14L180.84 208.21L181.78 206.33L182.82 204.52L183.98 202.77L185.25 201.07L186.64 199.42L188.13 197.83L189.75 196.29L191.48 194.8L193.33 193.35L195.29 191.95L197.38 190.59L199.59 189.27L201.92 187.99L204.37 186.75L206.94 185.54L209.64 184.37L212.47 183.23L215.42 182.12L218.5 181.04L221.7 179.98L225.04 178.95L228.39 177.97L231.65 177.09L234.82 176.3L237.89 175.6L240.88 175L243.78 174.49L246.59 174.08L249.32 173.77L251.97 173.55L254.54 173.44L257.03 173.42L259.44 173.51L261.78 173.7ZM247.87 197.09L247.6 197.11L247.32 197.15L247.05 197.2L246.78 197.26L246.51 197.33L246.24 197.41L245.98 197.5L245.72 197.6L245.46 197.71L245.22 197.83L244.98 197.96L244.75 198.1L244.52 198.25L244.3 198.41L244.09 198.57L243.89 198.74L243.69 198.92L243.51 199.11L243.33 199.3L243.15 199.5L242.99 199.71L242.84 199.92L242.69 200.14L242.55 200.36L242.42 200.59L242.3 200.82L242.19 201.06L242.08 201.3L241.99 201.55L241.9 201.8L241.83 202.05L241.76 202.31L241.71 202.56L241.66 202.83L241.62 203.09L241.6 203.36L241.58 203.62L241.58 203.89L241.58 204.16L241.6 204.43L241.62 204.7L241.66 204.97L241.71 205.25L241.77 205.52L241.84 205.79L241.92 206.06L244.87 214.92L227.25 220.82L224.3 211.96L224.21 211.7L224.11 211.44L223.99 211.19L223.87 210.94L223.74 210.7L223.6 210.47L223.46 210.24L223.3 210.03L223.14 209.82L222.96 209.61L222.78 209.42L222.6 209.23L222.41 209.05L222.21 208.88L222 208.71L221.79 208.56L221.57 208.41L221.35 208.27L221.12 208.14L220.89 208.02L220.65 207.91L220.41 207.81L220.16 207.71L219.91 207.63L219.66 207.55L219.4 207.49L219.14 207.43L218.88 207.38L218.62 207.35L218.35 207.32L218.09 207.3L217.82 207.3L217.55 207.3L217.28 207.32L217 207.34L216.73 207.38L216.46 207.43L216.19 207.49L215.92 207.56L215.65 207.64L215.39 207.73L215.13 207.83L214.87 207.95L214.63 208.07L214.39 208.2L214.16 208.34L213.93 208.48L213.71 208.64L213.5 208.8L213.3 208.98L213.1 209.16L212.92 209.34L212.74 209.53L212.56 209.73L212.4 209.94L212.25 210.15L212.1 210.37L211.96 210.59L211.83 210.82L211.71 211.05L211.6 211.29L211.49 211.53L211.4 211.78L211.31 212.03L211.24 212.28L211.17 212.54L211.12 212.8L211.07 213.06L211.03 213.32L211.01 213.59L210.99 213.85L210.99 214.12L210.99 214.39L211.01 214.66L211.03 214.94L211.07 215.21L211.12 215.48L211.17 215.75L211.24 216.02L211.33 216.29L214.28 225.15L205.74 228L205.47 228.09L205.21 228.19L204.96 228.3L204.71 228.42L204.47 228.56L204.24 228.69L204.02 228.84L203.8 229L203.59 229.16L203.38 229.33L203.19 229.51L203 229.7L202.82 229.89L202.65 230.09L202.49 230.3L202.33 230.51L202.18 230.73L202.04 230.95L201.91 231.18L201.79 231.41L201.68 231.65L201.58 231.89L201.48 232.14L201.4 232.39L201.32 232.64L201.26 232.9L201.2 233.16L201.16 233.42L201.12 233.68L201.09 233.95L201.08 234.21L201.07 234.48L201.08 234.75L201.09 235.02L201.12 235.29L201.15 235.56L201.2 235.84L201.26 236.11L201.33 236.38L201.41 236.65L201.49 236.85L201.57 237.05L201.65 237.25L201.74 237.44L201.84 237.63L201.95 237.81L202.06 238L202.17 238.17L202.29 238.35L202.41 238.51L202.54 238.68L202.68 238.84L202.82 239L202.96 239.15L203.11 239.29L203.26 239.44L203.41 239.57L203.57 239.71L203.74 239.83L203.9 239.96L204.07 240.07L204.25 240.19L204.42 240.3L204.6 240.4L204.78 240.5L204.97 240.59L205.15 240.68L205.34 240.76L205.53 240.83L205.73 240.9L205.92 240.97L206.12 241.03L206.32 241.08L206.52 241.13L206.72 241.17L206.92 241.21L207.13 241.24L207.33 241.26L207.53 241.28L207.74 241.29L207.8 241.3L207.85 241.3L207.91 241.31L207.96 241.31L208.02 241.31L208.08 241.32L208.14 241.32L208.19 241.32L208.25 241.32L208.31 241.31L208.37 241.31L208.43 241.31L208.49 241.3L208.54 241.3L208.6 241.29L208.66 241.28L208.72 241.28L208.78 241.27L208.84 241.26L208.9 241.25L208.96 241.24L209.02 241.23L209.08 241.22L209.14 241.2L209.2 241.19L209.26 241.18L209.31 241.17L209.37 241.15L209.43 241.14L209.49 241.13L209.55 241.11L209.61 241.1L209.66 241.08L209.72 241.07L209.78 241.05L209.84 241.03L209.89 241.02L209.95 241L210 240.99L210.06 240.97L218.6 238.12L224.3 255.11L215.76 257.95L215.49 258.05L215.23 258.15L214.98 258.26L214.73 258.38L214.49 258.51L214.26 258.65L214.04 258.8L213.82 258.96L213.61 259.12L213.4 259.29L213.21 259.47L213.02 259.66L212.84 259.85L212.67 260.05L212.51 260.26L212.35 260.47L212.2 260.69L212.07 260.91L211.94 261.14L211.81 261.37L211.7 261.61L211.6 261.85L211.5 262.1L211.42 262.34L211.34 262.6L211.28 262.85L211.22 263.11L211.18 263.37L211.14 263.64L211.11 263.9L211.1 264.17L211.09 264.44L211.1 264.71L211.11 264.98L211.14 265.25L211.17 265.52L211.22 265.79L211.28 266.06L211.35 266.34L211.43 266.6L211.51 266.81L211.59 267.01L211.67 267.21L211.77 267.4L211.86 267.59L211.97 267.77L212.08 267.95L212.19 268.13L212.31 268.3L212.44 268.47L212.56 268.64L212.7 268.8L212.84 268.95L212.98 269.1L213.13 269.25L213.28 269.39L213.44 269.53L213.59 269.66L213.76 269.79L213.92 269.91L214.09 270.03L214.27 270.15L214.44 270.25L214.62 270.36L214.8 270.45L214.99 270.55L215.17 270.63L215.36 270.72L215.55 270.79L215.75 270.86L215.94 270.93L216.14 270.99L216.34 271.04L216.54 271.09L216.74 271.13L216.94 271.16L217.15 271.19L217.35 271.22L217.56 271.23L217.76 271.25L217.82 271.25L217.87 271.26L217.93 271.26L217.99 271.27L218.04 271.27L218.1 271.27L218.16 271.27L218.21 271.27L218.27 271.27L218.33 271.27L218.39 271.27L218.45 271.26L218.51 271.26L218.57 271.25L218.62 271.25L218.68 271.24L218.74 271.23L218.8 271.22L218.86 271.22L218.92 271.21L218.98 271.2L219.04 271.19L219.1 271.17L219.16 271.16L219.22 271.15L219.28 271.14L219.34 271.12L219.39 271.11L219.45 271.1L219.51 271.08L219.57 271.07L219.63 271.05L219.69 271.04L219.74 271.02L219.8 271.01L219.86 270.99L219.91 270.98L219.97 270.96L220.03 270.95L220.08 270.93L228.63 268.08L231.58 276.94L231.65 277.15L231.73 277.35L231.82 277.54L231.91 277.74L232.01 277.92L232.11 278.11L232.22 278.29L232.34 278.47L232.46 278.64L232.58 278.81L232.71 278.97L232.85 279.13L232.99 279.29L233.13 279.44L233.28 279.59L233.43 279.73L233.58 279.87L233.74 280L233.9 280.13L234.07 280.25L234.24 280.37L234.41 280.48L234.59 280.59L234.77 280.69L234.95 280.79L235.14 280.88L235.32 280.97L235.51 281.05L235.7 281.13L235.9 281.2L236.09 281.26L236.29 281.32L236.49 281.38L236.69 281.42L236.89 281.47L237.09 281.5L237.29 281.53L237.5 281.55L237.7 281.57L237.91 281.58L237.96 281.59L238.02 281.6L238.08 281.6L238.13 281.61L238.19 281.61L238.25 281.61L238.3 281.61L238.36 281.61L238.42 281.61L238.48 281.61L238.54 281.61L238.6 281.6L238.65 281.6L238.71 281.59L238.77 281.59L238.83 281.58L238.89 281.57L238.95 281.56L239.01 281.55L239.07 281.54L239.13 281.53L239.19 281.52L239.25 281.51L239.31 281.5L239.36 281.49L239.42 281.47L239.48 281.46L239.54 281.45L239.6 281.43L239.66 281.42L239.72 281.41L239.77 281.39L239.83 281.38L239.89 281.36L239.95 281.35L240 281.33L240.06 281.31L240.12 281.3L240.17 281.28L240.23 281.27L240.49 281.17L240.75 281.07L241.01 280.96L241.25 280.84L241.49 280.71L241.72 280.57L241.95 280.42L242.17 280.27L242.38 280.1L242.58 279.93L242.78 279.75L242.96 279.56L243.14 279.37L243.32 279.17L243.48 278.97L243.63 278.75L243.78 278.54L243.92 278.31L244.05 278.08L244.17 277.85L244.28 277.61L244.39 277.37L244.48 277.13L244.57 276.88L244.64 276.62L244.71 276.37L244.76 276.11L244.81 275.85L244.85 275.58L244.87 275.32L244.89 275.05L244.89 274.78L244.89 274.51L244.87 274.24L244.85 273.97L244.81 273.7L244.76 273.43L244.7 273.16L244.63 272.89L244.55 272.62L241.6 263.76L259.22 257.85L262.17 266.71L262.24 266.91L262.32 267.11L262.41 267.31L262.5 267.5L262.6 267.69L262.71 267.88L262.81 268.06L262.93 268.24L263.05 268.41L263.17 268.58L263.3 268.74L263.44 268.9L263.58 269.06L263.72 269.21L263.87 269.36L264.02 269.5L264.17 269.64L264.33 269.77L264.5 269.9L264.66 270.02L264.83 270.14L265 270.25L265.18 270.36L265.36 270.46L265.54 270.56L265.73 270.65L265.91 270.74L266.1 270.82L266.29 270.9L266.49 270.97L266.68 271.03L266.88 271.09L267.08 271.14L267.28 271.19L267.48 271.23L267.68 271.27L267.88 271.3L268.09 271.32L268.29 271.34L268.5 271.35L268.55 271.36L268.61 271.36L268.67 271.37L268.72 271.37L268.78 271.38L268.84 271.38L268.89 271.38L268.95 271.38L269.01 271.38L269.07 271.38L269.13 271.37L269.19 271.37L269.24 271.36L269.3 271.36L269.36 271.35L269.42 271.35L269.48 271.34L269.54 271.33L269.6 271.32L269.66 271.31L269.72 271.3L269.78 271.29L269.84 271.28L269.9 271.27L269.96 271.26L270.01 271.24L270.07 271.23L270.13 271.22L270.19 271.2L270.25 271.19L270.31 271.17L270.37 271.16L270.42 271.14L270.48 271.13L270.54 271.11L270.59 271.1L270.65 271.08L270.71 271.07L270.76 271.05L270.82 271.03L271.08 270.94L271.34 270.84L271.6 270.73L271.84 270.61L272.08 270.48L272.31 270.34L272.54 270.19L272.76 270.03L272.97 269.87L273.17 269.7L273.37 269.52L273.55 269.33L273.73 269.14L273.91 268.94L274.07 268.73L274.22 268.52L274.37 268.3L274.51 268.08L274.64 267.85L274.76 267.62L274.87 267.38L274.98 267.14L275.07 266.89L275.16 266.65L275.23 266.39L275.3 266.14L275.35 265.88L275.4 265.62L275.44 265.35L275.46 265.09L275.48 264.82L275.48 264.55L275.48 264.28L275.46 264.01L275.44 263.74L275.4 263.47L275.35 263.2L275.3 262.93L275.23 262.65L275.14 262.39L272.19 253.52L280.73 250.68L281 250.58L281.26 250.48L281.51 250.37L281.76 250.25L282 250.12L282.23 249.98L282.46 249.83L282.67 249.68L282.88 249.51L283.09 249.34L283.28 249.16L283.47 248.97L283.65 248.78L283.82 248.58L283.98 248.38L284.14 248.16L284.29 247.95L284.43 247.72L284.56 247.49L284.68 247.26L284.79 247.02L284.89 246.78L284.99 246.54L285.07 246.29L285.15 246.03L285.21 245.78L285.27 245.52L285.31 245.26L285.35 244.99L285.38 244.73L285.39 244.46L285.4 244.19L285.39 243.92L285.38 243.65L285.35 243.38L285.32 243.11L285.27 242.84L285.21 242.57L285.14 242.3L285.06 242.03L284.97 241.76L284.87 241.5L284.75 241.25L284.63 241L284.5 240.76L284.36 240.53L284.21 240.31L284.06 240.09L283.89 239.88L283.72 239.67L283.54 239.48L283.36 239.29L283.16 239.11L282.96 238.94L282.76 238.78L282.55 238.62L282.33 238.47L282.11 238.34L281.88 238.21L281.64 238.08L281.41 237.97L281.16 237.87L280.92 237.77L280.67 237.69L280.42 237.61L280.16 237.55L279.9 237.49L279.64 237.45L279.38 237.41L279.11 237.38L278.84 237.37L278.58 237.36L278.31 237.37L278.03 237.38L277.76 237.41L277.49 237.44L277.22 237.49L276.95 237.55L276.68 237.62L276.41 237.7L267.87 240.55L262.17 223.57L270.71 220.72L270.98 220.63L271.24 220.52L271.49 220.41L271.74 220.29L271.98 220.16L272.21 220.02L272.43 219.87L272.65 219.72L272.86 219.55L273.07 219.38L273.26 219.2L273.45 219.02L273.63 218.82L273.8 218.62L273.96 218.42L274.12 218.21L274.27 217.99L274.41 217.77L274.53 217.54L274.66 217.3L274.77 217.07L274.87 216.82L274.97 216.58L275.05 216.33L275.13 216.08L275.19 215.82L275.25 215.56L275.29 215.3L275.33 215.04L275.36 214.77L275.37 214.5L275.38 214.23L275.37 213.97L275.36 213.69L275.33 213.42L275.3 213.15L275.25 212.88L275.19 212.61L275.12 212.34L275.04 212.07L274.95 211.8L274.84 211.54L274.73 211.29L274.61 211.05L274.48 210.81L274.34 210.57L274.19 210.35L274.04 210.13L273.87 209.92L273.7 209.72L273.52 209.52L273.34 209.33L273.14 209.15L272.94 208.98L272.74 208.82L272.53 208.66L272.31 208.52L272.08 208.38L271.86 208.25L271.62 208.13L271.39 208.01L271.14 207.91L270.9 207.82L270.65 207.73L270.4 207.66L270.14 207.59L269.88 207.54L269.62 207.49L269.36 207.45L269.09 207.43L268.82 207.41L268.55 207.4L268.28 207.41L268.01 207.42L267.74 207.45L267.47 207.49L267.2 207.53L266.93 207.59L266.66 207.66L266.39 207.74L257.84 210.59L254.89 201.73L254.8 201.47L254.7 201.21L254.58 200.95L254.46 200.71L254.33 200.47L254.19 200.24L254.05 200.01L253.89 199.79L253.73 199.58L253.55 199.38L253.38 199.18L253.19 199L253 198.82L252.8 198.65L252.59 198.48L252.38 198.33L252.16 198.18L251.94 198.04L251.71 197.91L251.48 197.79L251.24 197.68L251 197.57L250.75 197.48L250.5 197.4L250.25 197.32L249.99 197.25L249.73 197.2L249.47 197.15L249.21 197.12L248.94 197.09L248.68 197.07L248.41 197.07L248.14 197.07L247.87 197.09Z" id="bgqIG2Hav"></path></defs><g><g><use xlink:href="#e1npvElgMo" opacity="1" fill="#ffffff" fill-opacity="1"></use><g><use xlink:href="#e1npvElgMo" opacity="1" fill-opacity="0" stroke="#000000" stroke-width="1" stroke-opacity="0"></use></g></g><g><use xlink:href="#g122r0CAco" opacity="1" fill="#ffffff" fill-opacity="1"></use><g><use xlink:href="#g122r0CAco" opacity="1" fill-opacity="0" stroke="#000000" stroke-width="1" stroke-opacity="0"></use></g></g><g><use xlink:href="#bgqIG2Hav" opacity="1" fill="#ffffff" fill-opacity="1"></use><g><use xlink:href="#bgqIG2Hav" opacity="1" fill-opacity="0" stroke="#000000" stroke-width="1" stroke-opacity="0"></use></g></g></g></svg>